<svg height="512" viewBox="0 0 58 58" width="512" xmlns="http://www.w3.org/2000/svg"><g id="Page-1" fill="none" fill-rule="evenodd"><g id="045---Crying-Laughter-Elf" transform="translate(-1 -1)"><g fill-rule="nonzero"><path id="Shape" d="m53.9 29.079c1.337-15.304-12.111-28.079-28.9-28.079-6.4133599-.04137325-12.6815532 1.90826548-17.94 5.58l1.21 5.72c1.327 2.328 3.034 7.364-3.4 11.492l.13 4.208z" fill="#26b99a"/><path id="Shape" d="m9.01 26.6c-.59138143-1.7764014-1.54479689-3.4108279-2.8-4.8-.4779142-.5021397-1.18176882-.7209932-1.86015688-.5783891s-1.23455398.6263268-1.46984312 1.2783891c-1.2909098 3.6947738-1.92712035 7.5864873-1.88 11.5 0 8.11 5.69 8.1 6.81 8.02z" fill="#f9c795"/><path id="Shape" d="m50.99 26.6c.5913814-1.7764014 1.5447969-3.4108279 2.8-4.8.4779142-.5021397 1.1817688-.7209932 1.8601569-.5783891.678388.1426041 1.234554.6263268 1.4698431 1.2783891 1.2909098 3.6947738 1.9271203 7.5864873 1.88 11.5 0 8.11-5.69 8.1-6.81 8.02z" fill="#f9c795"/><path id="Shape" d="m53 36c.0026276 8.0022061-4.1563152 15.4299719-10.98 19.61h-.01c-7.3687254 4.520081-16.6512746 4.520081-24.02 0h-.01c-6.8236848-4.1800281-10.98262762-11.6077939-10.98-19.61.00414313-4.1079522 1.10542907-8.1402468 3.19-11.68.7023316-1.1602776 1.7829706-2.0431525 3.06-2.5 5.3763596-1.9088323 11.0450006-2.8631946 16.75-2.82 5.7049994-.0431946 11.3736404.9111677 16.75 2.82 1.2770294.4568475 2.3576684 1.3397224 3.06 2.5 2.0910528 3.5370139 3.1928313 7.5711119 3.19 11.68z" fill="#fdd7ad"/><circle id="Oval" cx="5" cy="10" fill="#f0c419" r="4"/><path id="Shape" d="m52.2 29.99c-12.27-.2-16.45-7.73-16.45-7.73-9.42 8.69-21.56 6.43-26.94 4.81.39751436-.9467124.85856518-1.8654731 1.38-2.75.7023316-1.1602776 1.7829706-2.0431525 3.06-2.5 5.3763596-1.9088323 11.0450006-2.8631946 16.75-2.82 5.7049994-.0431946 11.3736404.9111677 16.75 2.82 1.2770294.4568475 2.3576684 1.3397224 3.06 2.5 1.0517466 1.7720448 1.8558829 3.6797657 2.39 5.67z" fill="#cb8252"/><path id="Shape" d="m41.9 35.053c-.2651948-.0000566-.5195073-.1054506-.707-.293-1.7579169-1.7333272-4.3852394-2.2404927-6.662-1.286-.5141771.2018601-1.0946399-.0513229-1.2965-.5655s.0513229-1.0946399.5655-1.2965c3.0144695-1.2509178 6.4854165-.5669834 8.8 1.734.2859079.2859943.3714219.7160366.216678 1.0896546-.1547439.3736179-.5192821.6172591-.923678.6173454z" fill="#a56a43"/><path id="Shape" d="m39.947 38.333c-.2642154-.0000551-.5176713-.1046731-.705-.291-.5920975-.6382981-1.4233658-1.0010421-2.294-1.0010421s-1.7019025.362744-2.294 1.0010421c-.3923789.3789722-1.0160848.3735524-1.4018186-.0121814s-.3911536-1.0094397-.0121814-1.4018186c.956753-1.0315494 2.3000634-1.6177901 3.707-1.6177901s2.750247.5862407 3.707 1.6177901c.2859079.2859943.3714219.7160366.216678 1.0896546-.1547439.3736179-.5192821.6172591-.923678.6173454z" fill="#35495e"/><path id="Shape" d="m18 35.053c-.4043959-.0000863-.7689341-.2437275-.923678-.6173454-.1547439-.373618-.0692299-.8036603.216678-1.0896546 2.3161497-2.3034373 5.7905283-2.9875036 8.807-1.734.3326143.1305806.5702986.4286896.6235197.7820323.053221.3533427-.0861068.7082379-.3655.931-.2793933.2227621-.6564054.2795483-.9890197.1489677-2.2766157-.9558909-4.904738-.4485709-6.662 1.286-.1874927.1875494-.4418052.2929434-.707.293z" fill="#a56a43"/><path id="Shape" d="m25.947 38.333c-.2651948-.0000566-.5195073-.1054506-.707-.293-.5874874-.6457295-1.420012-1.013819-2.293-1.013819s-1.7055126.3680895-2.293 1.013819c-.3923789.3789722-1.0160848.3735524-1.4018186-.0121814s-.3911536-1.0094397-.0121814-1.4018186c.9564444-1.0320997 2.2998697-1.6187319 3.707-1.6187319s2.7505556.5866322 3.707 1.6187319c.2859079.2859943.3714219.7160366.216678 1.0896546-.1547439.3736179-.5192821.6172591-.923678.6173454z" fill="#35495e"/><path id="Shape" d="m40.59 45.35c-.0505603 3.2789288-1.8048462 6.2949365-4.63 7.96-3.6575999 2.2316464-8.2501383 2.2547438-11.93.06-2.8760047-1.6554786-4.6689449-4.7019575-4.72-8.02-.0018794-.2838448.0114732-.567586.04-.85.0486902-.6252608.453899-1.1662462 1.0402373-1.388798.5863382-.2225517 1.2484553-.0866827 1.6997627.348798 4.3983385 4.2001458 11.3216615 4.2001458 15.72 0 .4516034-.434628 1.1133021-.5699606 1.6992865-.3475432.5859843.2224174.9912361.7627239 1.0407135 1.3875432.0285268.282414.0418794.5661552.04.85z" fill="#802d40"/></g><path id="Shape" d="m12.037 43.6c-3.6 1.374-7.456 3.427-8.751 6.84-.83432337 2.2533037.30428411 4.75785 2.55067494 5.610611 2.24639084.8527609 4.76018386-.2652839 5.63132506-2.504611 1.295-3.414-2.579-6.061.569-9.946z" fill="#2fa8cc"/><path id="Shape" d="m47.963 43.6c3.6 1.374 7.456 3.427 8.751 6.84.5699091 1.4649897.3102702 3.1230994-.6801771 4.3437571-.9904474 1.2206577-2.5595095 1.8162953-4.1104788 1.5603944-1.5509694-.2559009-2.8455216-1.3240182-3.3913441-2.7981515-1.295-3.414 2.579-6.061-.569-9.946z" fill="#2fa8cc"/><path id="Shape" d="m35.96 53.31c-3.6575999 2.2316464-8.2501383 2.2547438-11.93.06.3147366-3.0472956 2.8746081-5.3680926 5.9380754-5.3834998 3.0634674-.0154072 5.6465529 2.2795241 5.9919246 5.3234998z" fill="#ff5364" fill-rule="nonzero"/><circle id="Oval" cx="6" cy="52" fill="#67b9cc" fill-rule="nonzero" r="2"/><circle id="Oval" cx="54" cy="52" fill="#67b9cc" fill-rule="nonzero" r="2"/></g></g></svg>