<svg height="512" viewBox="0 0 50 58" width="512" xmlns="http://www.w3.org/2000/svg"><g id="Page-1" fill="none" fill-rule="evenodd"><g id="022---Shock-Bauble" fill-rule="nonzero"><path id="Shape" d="m50 33c0 .11 0 .21-.01.32-.001195.7920306-.0479388 1.583337-.14 2.37-.0811161.8131633-.2079838 1.6211103-.38 2.42-.4074794 1.9795987-1.0591289 3.9009572-1.94 5.72v.01c-.5374637 1.1189392-1.1592572 2.1953773-1.86 3.22-4.6523602 6.8402892-12.3872265 10.9362523-20.6597107 10.9402555-8.2724843.0040031-16.01131115-4.0844722-20.6702893-10.9202555-.70074281-1.0246227-1.32253628-2.1010608-1.86-3.22-.89006383-1.8231954-1.54529215-3.7519188-1.95-5.74-.17201617-.7988897-.29888389-1.6068367-.38-2.42-.09206194-.7833154-.13880644-1.5712941-.14-2.36-.01-.11-.01-.23-.01-.34 0-.66.03-1.31.07-1.96v-.01c.06-.74.15-1.46.28-2.18.11669643-.7240183.27022903-1.4416163.46-2.15 2.13413427-8.1971542 8.27242029-14.7569534 16.31-17.43h15.76c8.0345925 2.6719486 14.1720713 9.2271222 16.31 17.42.19.7.34 1.41.46 2.13s.21 1.45.27 2.19v.01c.05.66.08 1.31.08 1.98z" fill="#e64c3c"/><path id="Shape" d="m33 10c0 1.66-3.58 3-8 3s-8-1.34-8-3l1-6c.3670252-.22967954.7477337-.43673156 1.14-.62.6923532-.32522215 1.4076005-.59928889 2.14-.82.01-.02.02-.05.03-.07.6129743-1.51753588 2.0922653-2.50528758 3.7288513-2.48982725 1.6365859.01546033 3.0969527 1.03098206 3.6811487 2.55982725.7346523.2236204 1.4530207.49760278 2.15.82.3884613.18440228.7657755.39142424 1.13.62z" fill="#f0c419"/><path id="Shape" d="m21.31 2.49c-.1289049.49289526-.1927801 1.00053511-.19 1.51 0 .55228475-.4477153 1-1 1s-1-.44771525-1-1c0-.21.01-.41.02-.62.6923532-.32522215 1.4076005-.59928889 2.14-.82.01-.02.02-.05.03-.07z" fill="#f29c1f"/><path id="Shape" d="m30.89 4c0 .55228475-.4477153 1-1 1s-1-.44771525-1-1c-.000479-.48497747-.0575313-.96824354-.17-1.44.7346523.2236204 1.4530207.49760278 2.15.82.01.21.02.41.02.62z" fill="#f29c1f"/><g fill="#f0c419"><path id="Shape" d="m9.01 40.11c-.1212918.435949-.5174958.7382078-.97.74-.09111561-.0042251-.18157307-.0176263-.27-.04-2.48799739-.6812238-4.91079097-1.5814053-7.24-2.69-.17201617-.7988897-.29888389-1.6068367-.38-2.42 2.59724148 1.3514345 5.33318908 2.4176494 8.16 3.18.25604173.0701124.47369791.2391555.60500257.4698766.13130466.230721.16548101.5041836.09499743.7601234z"/><path id="Shape" d="m7.85 35.62c-.13757212.4073117-.52008409.6811098-.95.68-.10882411.0030004-.21727822-.0139455-.32-.05-2.28195893-.7474457-4.48301968-1.7223448-6.57-2.91-.01-.11-.01-.23-.01-.34 0-.66.03-1.31.07-1.96 2.2399996 1.3897324 4.64103681 2.5012615 7.15 3.31.51982808.1822448.7994113.7458491.63 1.27z"/><path id="Shape" d="m8.81 31.72c-.1397915.3998911-.51638257.6683124-.94.67-.112094.0030234-.22383278-.0139067-.33-.05-2.5453831-.8280796-4.96473417-2.0024238-7.19-3.49.11669643-.7240183.27022903-1.4416163.46-2.15 2.2469892 1.6311369 4.73773744 2.896761 7.38 3.75.25166991.0847587.45890407.2667916.57540562.5054319s.13256235.5140019.04459438.7645681z"/><path id="Shape" d="m15.96 49.34c-.088968.4778647-.5039423.8257724-.99.83-.0570957-.0022968-.1139301-.0089832-.17-.02-3.6024929-.5767459-7.11723468-1.6083192-10.46-3.07-.70074281-1.0246227-1.32253628-2.1010608-1.86-3.22 3.91914834 2.2046799 8.2106582 3.6690814 12.66 4.32.5453326.0961488.9112807.6138315.82 1.16z"/><path id="Shape" d="m49.85 35.69c-.0811161.8131633-.2079838 1.6211103-.38 2.42-2.3397171 1.1108588-4.7723753 2.014322-7.27 2.7-.0882845.0230786-.1788164.0364907-.27.04-.5104795.0145671-.9499182-.3578493-1.0192626-.8638067-.0693444-.5059573.2536881-.9828748.7492626-1.1061933 2.8373469-.7639689 5.5834192-1.8335624 8.19-3.19z"/><path id="Shape" d="m50 33c0 .11 0 .21-.01.32-2.0937669 1.2002847-4.3053956 2.1821138-6.6 2.93-.1027218.0360545-.2111759.0530004-.32.05-.4299159.0011098-.8124279-.2726883-.95-.68-.1694113-.5241509.1101719-1.0877552.63-1.27 2.5154406-.817056 4.9229003-1.9351648 7.17-3.33.05.66.08 1.31.08 1.98z"/><path id="Shape" d="m49.65 28.82c-2.2333695 1.4997265-4.6629323 2.6842226-7.22 3.52-.1061672.0360933-.217906.0530234-.33.05-.4815954-.0099181-.8876818-.3617635-.9660777-.8370387-.0783959-.4752753.19318-.9389001.6460777-1.1029613 2.6555538-.8480938 5.1574809-2.1176277 7.41-3.76.19.7.34 1.41.46 2.13z"/><path id="Shape" d="m47.53 43.84c-.5374637 1.1189392-1.1592572 2.1953773-1.86 3.22-3.355254 1.4698617-6.883417 2.5081497-10.5 3.09-.0560699.0110168-.1129043.0177032-.17.02-.5316203.0174198-.9838465-.3843711-1.0291208-.9143465-.0452743-.5299753.3322489-1.0026494.8591208-1.0756535 4.4644123-.6524995 8.7699417-2.1238379 12.7-4.34z"/></g><path id="Shape" d="m11 19.183c-.4491344.0004604-.8434781-.2985761-.9642151-.7311781-.12073697-.432602.0617556-.8926306.4462151-1.1248219 2.7619546-1.6698578 6.1964381-1.7722891 9.053-.27.4937425.2485281.6925281.8502574.444 1.344-.2485282.4937425-.8502574.6925281-1.344.444-2.2444471-1.1872977-4.9465061-1.1137052-7.123.194-.1545388.0933379-.3314636.1430979-.512.144z" fill="#802f34"/><circle id="Oval" cx="15.5" cy="26.5" fill="#ecf0f1" r="5.5"/><circle id="Oval" cx="15.5" cy="26.5" fill="#35495e" r="2.5"/><path id="Shape" d="m39 19.183c-.1818954-.0001776-.3602975-.0499643-.516-.144-2.1764939-1.3077052-4.8785529-1.3812977-7.123-.194-.4937426.2485281-1.0954718.0497425-1.344-.444-.2485281-.4937426-.0497425-1.0954718.444-1.344 2.856654-1.5018906 6.2909297-1.3994655 9.053.27.3838281.2318061.5664313.6907685.4467574 1.1228983-.1196739.4321299-.5123644.7317706-.9607574.7331017z" fill="#802f34"/><circle id="Oval" cx="34.5" cy="26.5" fill="#ecf0f1" r="5.5"/><ellipse id="Oval" cx="25" cy="43.5" fill="#802d40" rx="4" ry="6.5"/><path id="Shape" d="m29.026 36c-.2828752-.0001022-.5524736-.1200044-.742-.33-.8110539-.9937877-2.0031706-1.6000103-3.284-1.67-1.2808294.0699897-2.4729461.6762123-3.284 1.67-.2368486.2752738-.6043131.4005132-.9599745.3271789-.3556614-.0733344-.6436143-.3337152-.7522562-.6802263-.1086419-.346511-.0208957-.7246851.2292307-.9879526 1.1778997-1.4285752 2.9161472-2.277826 4.767-2.329 1.8508528.051174 3.5891003.9004248 4.767 2.329.2652631.2931166.332948.7149908.1726924 1.076377-.1602557.3613863-.5183674.5944422-.9136924.594623z" fill="#c03a2b"/><path id="Shape" d="m25 55c-1.8508528-.051174-3.5891003-.9004248-4.767-2.329-.2501264-.2632675-.3378726-.6414416-.2292307-.9879526.1086419-.3465111.3965948-.6068919.7522562-.6802263.3556614-.0733343.7231259.0519051.9599745.3271789.8110539.9937877 2.0031706 1.6000103 3.284 1.67 1.2808294-.0699897 2.4729461-.6762123 3.284-1.67.3737899-.393428.9931511-.416923 1.3956726-.0529436.4025215.3639793.441275.9825732.0873274 1.3939436-1.1778997 1.4285752-2.9161472 2.277826-4.767 2.329z" fill="#c03a2b"/><circle id="Oval" cx="34.5" cy="26.5" fill="#35495e" r="2.5"/><circle id="Oval" cx="14" cy="25" fill="#ecf0f1" r="1"/><circle id="Oval" cx="33" cy="25" fill="#ecf0f1" r="1"/></g></g></svg>